<?xml version="1.0" standalone="no"?>
<!DOCTYPE svg PUBLIC "-//W3C//DTD SVG 20010904//EN"
 "http://www.w3.org/TR/2001/REC-SVG-20010904/DTD/svg10.dtd">
<svg version="1.0" xmlns="http://www.w3.org/2000/svg"
 width="700.000000pt" height="700.000000pt" viewBox="0 0 700.000000 700.000000"
 preserveAspectRatio="xMidYMid meet">
<metadata>
Created by potrace 1.11, written by Peter Selinger 2001-2013
</metadata>
<g transform="translate(0.000000,700.000000) scale(0.100000,-0.100000)"
fill="#000000" stroke="none">
<path d="M3467 6624 c-1 -1 -60 -4 -132 -8 -71 -3 -139 -8 -150 -10 -11 -2
-47 -7 -80 -10 -332 -38 -739 -166 -1045 -329 -289 -154 -513 -320 -756 -562
-242 -241 -416 -477 -571 -775 -117 -225 -224 -520 -274 -755 -7 -33 -14 -64
-15 -70 -5 -24 -14 -73 -20 -120 -3 -27 -7 -52 -9 -55 -2 -3 -6 -41 -10 -85
-4 -44 -9 -89 -11 -100 -7 -33 -6 -403 1 -490 59 -725 373 -1418 871 -1921 86
-87 229 -214 240 -214 3 0 -8 17 -25 38 -67 80 -229 313 -295 422 -106 176
-180 340 -249 553 -20 61 -6 53 18 -10 52 -139 163 -345 278 -518 265 -396
697 -790 1076 -980 184 -92 524 -187 791 -220 30 -4 64 -9 75 -11 25 -5 260
-17 335 -17 50 -1 306 13 355 18 116 13 320 52 453 86 516 135 1009 419 1396
804 333 330 573 701 730 1125 45 122 110 339 122 403 3 18 9 50 14 72 5 22 11
60 15 85 3 25 10 70 15 100 37 223 32 683 -10 925 -5 33 -12 71 -14 85 -13 82
-65 283 -102 396 -72 221 -186 467 -286 619 -45 68 -45 67 12 -70 104 -253
194 -619 215 -870 4 -44 8 -96 11 -115 5 -46 5 -331 -1 -395 -12 -139 -18
-189 -36 -290 -58 -319 -139 -565 -278 -845 -174 -347 -432 -681 -716 -923
-58 -50 -58 -49 20 33 442 470 725 1027 834 1640 21 116 23 135 37 290 9 106
10 365 1 490 -16 206 -78 511 -147 721 -98 294 -246 587 -424 839 -33 47 -65
90 -71 96 -5 6 -23 29 -40 50 -107 138 -247 278 -343 342 -98 66 -98 64 -2
-37 202 -212 416 -511 542 -757 136 -266 244 -594 288 -874 6 -41 13 -86 16
-100 27 -160 26 -614 -2 -790 -52 -338 -93 -481 -237 -830 -192 -466 -409
-784 -728 -1062 -387 -339 -893 -556 -1406 -605 -100 -10 -364 -10 -468 0
-252 23 -533 98 -772 204 -802 358 -1358 1121 -1460 2003 -15 133 -9 497 11
597 3 11 8 43 11 70 4 26 16 84 27 128 11 44 21 87 23 95 16 79 97 300 155
425 201 426 523 790 930 1049 103 66 332 176 466 225 104 37 301 94 369 105
17 3 71 12 120 20 50 8 126 18 170 21 97 8 343 8 405 0 25 -3 68 -8 95 -11 28
-3 57 -7 65 -9 8 -2 35 -7 60 -10 25 -4 65 -11 90 -17 25 -5 54 -12 66 -14 57
-11 232 -68 334 -109 726 -291 1274 -912 1474 -1668 26 -97 43 -182 53 -257 3
-25 7 -52 9 -60 1 -8 3 -33 3 -54 1 -22 3 -37 6 -34 13 13 19 248 10 394 -4
80 -33 272 -52 354 -8 36 -16 73 -18 82 -7 35 -55 205 -79 278 -137 429 -402
863 -729 1196 -198 202 -371 335 -502 387 -175 70 -455 142 -645 167 -47 6
-96 13 -110 15 -46 8 -386 24 -393 19z"/>
<path d="M3339 5146 c-2 -2 -31 -7 -64 -10 -56 -5 -78 -9 -145 -21 -14 -3 -39
-7 -57 -10 -55 -9 -269 -73 -335 -100 -278 -116 -493 -278 -616 -466 -29 -44
-51 -64 -105 -93 -83 -46 -191 -126 -233 -173 -39 -44 -92 -131 -104 -171 -9
-35 -8 -37 19 -22 10 5 31 12 47 15 46 10 48 10 59 16 6 4 20 5 33 4 12 -1 22
3 22 9 0 6 5 4 10 -4 5 -8 10 -10 10 -3 0 6 8 10 18 8 9 -1 22 0 27 4 6 3 37
6 70 6 34 1 67 5 74 10 10 6 12 4 6 -5 -5 -9 -2 -10 12 -6 12 4 25 1 33 -9 8
-10 9 -15 1 -15 -6 0 -11 -4 -11 -10 0 -17 14 -11 28 11 8 12 9 18 3 15 -5 -4
-12 -2 -15 3 -4 5 -2 12 3 15 5 4 12 2 15 -2 3 -5 23 -8 44 -7 27 1 39 -2 39
-12 0 -14 -13 -18 -20 -5 -2 4 -2 2 -1 -5 2 -6 0 -14 -4 -16 -9 -5 13 1 35 10
11 4 14 3 9 -6 -5 -7 -2 -10 6 -9 7 2 18 12 25 23 7 11 12 14 13 7 0 -8 9 -11
25 -8 14 3 23 1 20 -4 -3 -4 5 -8 18 -9 45 -1 57 -5 57 -17 0 -16 23 -24 40
-14 8 5 21 5 31 0 9 -5 19 -6 23 -3 12 12 6 -13 -6 -27 -7 -8 -3 -6 10 4 15
14 22 15 22 6 0 -7 3 -11 6 -7 11 11 65 -23 57 -36 -4 -7 0 -7 10 2 15 12 17
11 18 -10 0 -22 1 -22 8 -5 5 14 10 16 15 8 4 -7 5 -16 2 -20 -3 -5 1 -9 9 -9
8 0 12 5 8 10 -3 5 4 4 17 -3 12 -7 19 -17 16 -26 -3 -8 -1 -14 3 -14 5 0 11
6 14 13 3 7 9 2 15 -13 6 -14 11 -19 11 -12 1 10 5 10 17 -2 8 -9 20 -16 25
-16 6 0 8 -10 4 -22 -5 -17 -4 -19 4 -9 8 12 18 7 55 -31 25 -25 46 -50 46
-57 0 -6 5 -11 11 -11 6 0 9 -7 6 -14 -4 -10 -1 -13 9 -9 7 3 15 0 15 -6 3
-26 4 -30 13 -38 5 -5 6 -3 2 5 -4 6 -5 12 -2 12 5 0 90 -149 91 -160 1 -3 8
-18 17 -35 20 -38 63 -174 77 -245 6 -30 13 -68 16 -85 11 -56 14 -309 4 -383
-23 -176 -80 -351 -159 -492 -22 -38 -40 -71 -40 -74 0 -2 24 -4 53 -4 28 0
57 -1 62 -2 6 -1 15 -1 20 0 6 2 35 3 65 4 44 1 58 -3 72 -19 9 -11 14 -24 11
-29 -3 -5 -10 -1 -15 8 -10 18 -28 22 -28 5 0 -5 4 -8 9 -5 5 3 12 -1 15 -10
5 -13 9 -14 21 -4 11 9 12 16 5 25 -5 6 -6 16 -2 20 4 5 1 5 -5 1 -9 -5 -11
-2 -7 7 4 11 19 14 55 12 27 -2 47 0 44 4 -2 4 2 8 10 8 8 0 12 -4 9 -8 -2 -4
5 -10 16 -14 11 -4 18 -11 14 -16 -4 -6 -11 -6 -20 2 -8 7 -14 7 -14 1 0 -14
28 -23 35 -12 3 5 13 7 23 4 13 -5 14 -4 4 4 -8 5 -14 13 -15 18 -1 5 -8 8
-14 8 -7 -1 -13 2 -13 7 0 5 8 9 18 10 9 0 32 2 49 4 18 2 35 0 37 -4 3 -4 -1
-8 -9 -9 -8 -1 -22 -3 -30 -4 -17 -2 -18 -7 -5 -28 8 -13 10 -12 10 3 0 9 5
17 11 17 6 0 8 -8 5 -17 -5 -16 -4 -16 6 -3 7 8 27 14 43 14 32 -1 46 11 38
33 -8 19 -22 16 -18 -5 2 -12 -4 -17 -19 -18 -15 -1 -22 4 -23 18 -2 17 0 18
14 6 12 -9 15 -10 9 0 -4 7 -2 13 6 14 7 0 18 2 23 2 6 1 16 5 23 9 6 5 16 6
21 3 5 -4 12 0 15 6 2 7 4 2 2 -11 -1 -13 -11 -30 -21 -37 -10 -8 -14 -14 -9
-14 6 0 15 5 22 12 7 7 12 8 12 4 0 -5 7 -3 16 5 13 10 17 10 26 -2 8 -11 9
-11 4 3 -3 10 -1 20 3 23 12 7 23 -24 14 -37 -3 -7 -1 -8 6 -4 6 4 9 16 6 26
-5 15 -2 18 15 15 11 -2 18 0 15 6 -10 16 24 22 42 8 15 -13 15 -12 3 6 -11
19 -51 33 -49 17 3 -20 -3 -23 -18 -11 -10 8 -14 9 -10 2 4 -6 3 -14 -3 -18
-5 -3 -10 -1 -10 4 0 6 -5 11 -10 11 -6 0 -9 -5 -8 -12 2 -7 -7 -13 -19 -14
-15 -1 -20 3 -15 14 4 11 7 12 10 3 3 -9 7 -8 16 3 6 9 22 18 36 20 14 3 27 6
30 7 3 1 10 3 15 3 6 1 20 7 33 14 12 7 22 10 22 7 0 -3 11 2 25 11 14 9 25
13 25 10 0 -4 11 1 25 10 14 9 25 13 25 9 0 -5 9 0 20 10 11 10 20 15 20 11 0
-3 11 1 25 10 14 9 25 12 25 8 0 -5 7 0 15 10 8 11 15 16 15 11 0 -4 9 0 20
10 11 10 20 14 20 10 0 -4 9 0 20 10 11 10 20 15 20 12 0 -4 9 2 20 13 11 11
26 17 35 14 11 -5 14 -2 8 12 -6 16 -5 17 9 4 12 -11 13 -19 4 -32 -6 -10 -14
-18 -19 -18 -4 0 -6 4 -2 9 3 5 0 13 -6 17 -8 4 -9 3 -5 -5 5 -7 2 -10 -6 -9
-7 2 -12 -3 -10 -10 1 -8 -2 -11 -9 -6 -8 5 -9 3 -4 -6 5 -9 4 -11 -4 -6 -6 4
-14 0 -17 -9 -5 -12 -9 -13 -14 -5 -5 8 -9 7 -13 -5 -4 -9 -1 -18 8 -21 8 -4
12 -11 8 -17 -3 -6 -1 -7 5 -3 6 4 8 14 5 23 -4 11 -3 14 5 9 8 -5 10 -2 6 9
-4 11 -2 14 9 10 8 -4 17 0 20 8 3 8 17 13 36 12 18 -1 28 2 24 8 -4 7 1 8 13
4 18 -7 18 -6 2 6 -10 8 -15 17 -11 20 3 4 12 2 19 -4 7 -6 19 -9 26 -6 8 3 6
6 -5 6 -10 1 -15 6 -12 11 4 6 10 8 15 5 5 -3 18 9 30 26 16 22 26 27 33 20 6
-6 16 -11 22 -11 6 0 5 4 -2 8 -8 5 -9 13 -3 22 7 10 10 11 10 3 0 -7 5 -13
11 -13 8 0 9 4 0 13 -11 14 -5 27 11 27 5 0 6 -5 2 -12 -4 -7 -3 -8 5 -4 9 6
9 11 1 21 -10 12 3 32 23 34 9 1 10 3 1 24 -5 14 -9 16 -15 6 -4 -8 -11 -11
-14 -7 -3 3 7 20 23 37 l29 32 28 -23 c16 -12 26 -17 21 -10 -5 8 1 15 16 21
14 6 17 10 8 10 -9 1 -21 -4 -27 -10 -7 -7 -13 -7 -17 -1 -3 6 3 14 15 17 12
4 18 12 15 20 -3 9 0 12 9 8 8 -3 12 -10 8 -16 -3 -6 -1 -7 6 -3 6 4 9 11 6
16 -3 4 1 11 7 13 10 4 10 6 1 6 -7 1 -13 6 -13 12 0 6 7 9 15 6 8 -4 17 -1
21 5 4 7 3 8 -4 4 -7 -4 -12 -3 -12 3 0 19 19 21 29 4 6 -10 11 -13 11 -6 0 6
-4 14 -9 17 -15 10 11 54 29 49 12 -4 13 -3 1 5 -8 6 -21 8 -30 4 -9 -3 -13
-2 -9 3 4 4 3 14 -2 20 -8 9 -5 15 7 19 15 6 15 8 3 16 -11 7 -12 10 -2 10 7
0 10 5 7 10 -4 6 -3 10 2 9 20 -3 27 2 13 11 -11 7 -11 10 -2 10 7 0 10 5 6
12 -5 7 -3 8 6 3 9 -6 10 -2 5 15 -6 19 -4 22 10 16 14 -5 16 -4 7 7 -7 8 -9
17 -5 21 4 3 8 14 9 24 2 9 5 26 8 37 2 11 5 28 5 38 1 27 17 20 17 -7 0 -14
-3 -23 -7 -20 -4 2 -6 -9 -4 -26 2 -17 0 -28 -4 -25 -5 2 -7 -11 -5 -31 2 -29
0 -35 -12 -30 -8 3 -12 2 -9 -3 3 -6 14 -9 25 -8 14 1 16 5 10 17 -6 10 -2 22
13 39 12 13 16 21 8 16 -9 -5 -12 -3 -9 6 3 8 11 13 17 11 7 -1 10 2 6 8 -3 5
-1 10 6 10 7 0 9 3 6 7 -4 3 -16 -2 -27 -12 -11 -10 -20 -13 -20 -7 0 6 12 20
28 31 15 12 19 18 9 15 -13 -5 -16 -2 -11 10 3 9 10 14 14 11 5 -3 7 3 5 12
-1 10 2 27 7 38 8 17 7 18 -4 4 -7 -9 -20 -14 -28 -12 -10 3 -9 0 3 -7 17 -11
15 -30 -4 -30 -6 0 -7 4 -4 10 4 6 -1 7 -12 4 -11 -4 -14 -2 -7 3 6 4 10 28 9
53 -1 25 1 49 4 55 3 5 4 22 2 37 -1 16 1 28 6 28 4 0 8 -29 9 -64 0 -39 -4
-62 -9 -59 -6 3 -7 1 -3 -6 6 -8 12 -9 20 -2 14 12 15 39 1 60 -6 11 -4 13 11
8 18 -7 18 -6 1 7 -14 10 -15 15 -5 19 10 4 10 6 1 6 -7 1 -13 6 -13 12 0 6 8
8 18 5 14 -5 14 -4 -2 9 -11 8 -24 15 -28 15 -5 0 -7 20 -4 45 2 25 1 43 -2
41 -4 -2 -7 18 -8 44 0 27 3 47 7 44 4 -2 10 0 14 6 4 6 12 7 18 4 7 -4 8 -3
4 2 -5 5 -13 10 -18 10 -5 1 -12 2 -15 3 -4 0 -1 8 6 16 9 10 9 15 1 15 -10 0
-15 -13 -12 -32 0 -5 -4 -8 -10 -8 -6 0 -9 7 -6 15 4 8 2 17 -3 20 -5 3 -7 12
-3 20 3 8 -1 15 -8 15 -7 0 -9 3 -6 6 3 4 2 15 -4 25 -7 13 -6 25 1 37 10 15
11 15 5 -3 -5 -16 -4 -17 6 -8 10 10 9 15 -1 28 -7 8 -18 15 -24 15 -6 0 -5
-4 3 -9 9 -6 10 -11 2 -15 -11 -7 -15 5 -12 32 1 6 -3 12 -9 12 -6 0 -8 5 -5
10 3 6 1 10 -4 10 -6 0 -11 5 -11 11 0 5 4 8 9 4 5 -3 13 -1 16 5 4 6 1 9 -7
8 -7 -2 -12 2 -11 9 2 7 -4 10 -12 7 -9 -4 -16 3 -21 20 -3 14 -10 26 -15 26
-5 0 -9 5 -9 11 0 5 4 8 9 4 5 -3 12 -1 16 4 3 6 -3 8 -14 6 -15 -3 -30 10
-58 48 -21 29 -43 58 -50 65 -7 8 -11 18 -7 23 3 5 0 8 -8 7 -7 -2 -12 3 -11
10 2 6 -3 12 -10 12 -18 0 -99 88 -92 100 3 6 -1 7 -10 4 -11 -5 -27 5 -49 27
-17 19 -45 45 -61 59 -17 14 -35 32 -42 41 -10 13 -8 15 12 15 19 0 22 -3 13
-13 -13 -17 4 -17 20 -1 8 8 15 9 20 3 7 -10 27 -17 49 -18 7 0 10 -4 7 -9 -3
-4 5 -8 18 -8 24 0 74 -29 51 -30 -6 0 -15 5 -18 10 -3 6 -12 10 -18 10 -7 0
-4 -5 6 -11 9 -6 15 -14 12 -19 -3 -5 0 -12 6 -16 7 -4 9 -3 6 2 -3 6 2 15 12
21 14 9 29 3 77 -31 34 -22 68 -48 76 -56 9 -8 25 -22 37 -30 11 -8 21 -21 21
-29 0 -8 3 -11 7 -8 3 4 20 -8 37 -26 42 -45 67 -77 61 -77 -3 0 4 -10 15 -22
29 -31 51 -74 42 -83 -4 -5 -2 -5 5 -2 6 4 16 -4 22 -21 6 -15 20 -42 31 -60
11 -18 22 -41 24 -50 1 -9 8 -28 13 -42 17 -40 51 -162 57 -200 3 -19 8 -57
12 -85 12 -78 6 -249 -11 -340 -18 -97 -44 -176 -85 -258 -17 -33 -28 -63 -25
-65 3 -3 5 0 5 6 0 6 6 17 13 24 21 21 104 217 123 291 10 37 22 67 27 67 5 0
4 7 -3 15 -8 9 -9 15 -2 15 6 0 9 9 7 20 -2 11 0 22 4 25 5 2 7 18 6 35 -1 16
1 27 6 24 5 -3 9 -1 9 5 0 5 -6 11 -12 14 -7 2 -10 8 -5 12 4 5 13 3 19 -3 7
-7 17 -12 22 -12 6 0 0 7 -13 16 -18 13 -22 24 -19 50 2 19 -1 36 -7 38 -7 3
-7 5 1 5 6 1 9 14 6 32 -3 22 -1 30 7 25 7 -5 9 -1 5 8 -3 9 -9 14 -13 12 -4
-3 -7 12 -8 32 -1 20 -4 46 -6 57 -3 11 4 30 16 43 16 17 18 25 9 34 -7 7 -12
9 -12 5 0 -4 -9 -3 -20 3 -11 6 -20 21 -20 33 0 13 -5 28 -12 35 -7 7 -9 12
-6 12 4 0 1 15 -7 34 -8 18 -12 36 -9 38 2 3 -2 11 -11 18 -8 7 -15 18 -15 24
0 6 4 5 9 -3 5 -8 11 -9 15 -3 3 6 -3 14 -15 17 -13 4 -18 12 -15 21 3 8 2 12
-3 9 -11 -6 -26 32 -22 54 1 7 -2 10 -8 6 -7 -3 -11 3 -11 15 0 12 -4 19 -9
16 -12 -8 -23 22 -14 37 3 7 3 9 -2 5 -4 -4 -14 -3 -22 3 -16 14 -18 43 -1 33
7 -4 8 -3 4 5 -4 6 -12 9 -17 5 -12 -7 -59 45 -59 64 0 7 -4 11 -9 7 -12 -7
-42 35 -34 48 3 6 1 7 -5 3 -6 -3 -28 11 -50 31 -21 21 -53 49 -72 63 -18 14
-39 31 -46 38 -7 6 -18 12 -24 12 -7 0 -10 7 -7 14 4 11 1 13 -10 9 -11 -4
-14 -2 -9 5 4 7 2 10 -7 6 -8 -3 -20 2 -27 11 -7 8 -19 15 -26 15 -8 0 -14 4
-14 10 0 5 -6 9 -12 7 -7 -1 -12 4 -10 11 1 8 -2 11 -7 8 -5 -4 -40 9 -78 28
-37 18 -86 39 -108 46 -22 7 -44 16 -50 20 -10 7 -146 45 -200 55 -229 43
-442 47 -655 14 -97 -15 -102 -17 -90 -40 17 -32 22 -97 10 -133 -22 -69 -107
-125 -188 -126 -24 0 -41 4 -38 9 4 5 -3 7 -13 4 -13 -3 -29 4 -45 21 -14 14
-26 22 -26 19 0 -4 -6 2 -14 12 -8 11 -12 23 -10 27 3 5 1 8 -4 8 -6 0 -13 11
-16 25 -7 29 -10 30 -62 11 -22 -7 -45 -11 -53 -8 -8 3 -11 0 -7 -6 4 -6 -3
-16 -14 -22 -11 -6 -20 -7 -20 -3 0 4 -9 -3 -20 -17 -11 -14 -20 -19 -20 -12
0 8 -5 10 -12 6 -8 -4 -10 -3 -5 2 5 5 14 9 20 9 7 1 11 7 9 14 -1 7 2 10 9 5
9 -5 10 -2 6 9 -4 10 -2 16 5 14 7 -1 12 3 13 10 0 15 13 28 28 28 7 1 11 7 9
15 -2 8 -1 12 3 8 4 -4 26 11 48 33 38 36 50 43 61 37 2 -2 14 9 25 24 14 18
27 25 38 21 11 -4 14 -3 9 5 -7 12 5 16 33 13 8 -2 10 2 5 10 -4 8 -3 10 4 5
14 -8 5 -33 -13 -40 -10 -3 -12 1 -9 12 3 9 -1 6 -9 -8 -9 -14 -19 -25 -24
-25 -4 0 -7 -3 -5 -7 1 -5 -2 -8 -7 -8 -5 0 -11 3 -14 8 -2 4 -2 1 0 -6 2 -8
-2 -10 -10 -6 -9 6 -9 4 -1 -7 6 -8 14 -21 18 -29 3 -8 4 -5 2 8 -4 19 -1 22
17 17 17 -5 19 -4 7 4 -8 6 -13 11 -10 12 3 0 13 2 23 4 13 2 17 -1 13 -11 -3
-9 -1 -12 5 -9 5 4 7 16 4 28 -6 22 -6 22 11 2 16 -20 16 -19 9 5 -7 23 -7 24
10 10 17 -13 18 -13 9 0 -11 18 -13 61 -3 54 4 -2 9 -1 12 3 2 5 2 3 1 -4 -2
-7 3 -10 13 -6 10 4 14 2 9 -5 -3 -6 -1 -14 6 -18 7 -4 10 -4 6 1 -4 4 -2 15
5 23 8 11 8 14 0 9 -6 -4 -14 -4 -17 1 -9 15 12 35 38 35 15 0 23 4 19 10 -3
5 -1 7 5 3 6 -3 13 -2 17 4 4 6 10 8 15 5 5 -3 11 -1 15 4 3 6 13 7 22 4 12
-5 14 -3 8 7 -5 9 -4 11 4 6 6 -4 18 -2 26 4 8 7 15 9 15 5 0 -4 6 -3 13 2 16
12 38 11 35 -2 -2 -5 -10 -9 -20 -9 -11 1 -14 -4 -11 -15 4 -11 1 -10 -11 4
-16 19 -16 19 -4 -9 7 -15 14 -23 16 -17 3 9 8 9 20 -1 14 -10 15 -10 5 2 -21
23 -15 35 7 15 11 -10 17 -22 13 -28 -3 -6 -1 -7 6 -3 9 6 9 11 0 22 -10 13
-7 14 19 9 17 -3 34 -1 37 5 3 6 -1 7 -10 4 -11 -5 -14 -2 -9 10 3 9 10 13 15
10 14 -9 10 3 -7 21 -15 14 -14 15 15 10 17 -3 31 -2 31 3 0 10 38 13 44 4 3
-4 -4 -9 -15 -10 -10 -1 -28 -3 -40 -4 -18 -2 -18 -4 -5 -14 9 -6 16 -16 16
-22 0 -6 5 -14 12 -18 7 -4 8 -3 4 5 -9 14 2 51 15 51 6 0 6 -7 -1 -19 -7 -15
-7 -22 2 -27 7 -4 10 -4 6 1 -4 4 -3 16 3 27 10 18 12 19 29 3 11 -10 20 -12
24 -6 4 5 15 8 26 6 22 -4 25 2 10 25 -8 13 -10 12 -10 -4 0 -11 -3 -16 -7
-13 -3 4 -12 2 -20 -4 -15 -13 -18 2 -3 17 7 7 6 11 -4 11 -8 0 -13 -4 -10 -9
3 -4 1 -8 -4 -8 -6 0 -12 6 -15 14 -4 10 3 13 29 10 25 -2 33 0 27 9 -5 9 -3
9 8 0 12 -10 18 -10 29 0 12 10 12 9 1 -6 -12 -15 -12 -17 3 -11 9 3 16 1 16
-5 0 -6 -5 -11 -12 -11 -6 0 -8 -3 -4 -7 4 -5 14 1 22 11 13 19 14 19 36 0 12
-10 18 -13 14 -6 -4 6 -3 12 3 12 5 0 11 -3 14 -7 2 -5 2 -2 0 5 -1 8 3 12 9
9 7 -2 12 -10 10 -16 -1 -7 2 -10 8 -6 6 3 8 11 5 16 -7 10 24 7 43 -4 7 -5
12 -3 13 5 0 7 4 4 9 -7 6 -15 9 -16 9 -4 1 12 10 15 36 14 19 -2 35 1 35 6 0
4 -13 6 -30 4 -23 -3 -30 0 -30 13 0 12 3 13 12 4 15 -15 31 -16 22 0 -5 7 -3
8 6 3 7 -4 28 -8 47 -7 18 1 33 -3 33 -9 0 -6 -8 -8 -19 -4 -18 5 -39 -21 -26
-33 3 -3 5 -1 5 5 0 5 6 10 13 10 6 0 19 2 27 4 9 3 14 -3 14 -13 -1 -10 3
-15 8 -12 5 3 7 12 4 20 -3 8 -1 14 5 14 6 0 7 5 3 12 -5 7 -3 8 7 2 8 -5 23
-9 34 -10 40 -2 46 -4 40 -13 -3 -5 -1 -13 5 -16 6 -4 9 -1 8 6 -2 7 5 15 15
17 9 2 17 -2 17 -8 0 -6 -4 -9 -9 -5 -6 3 -9 -4 -8 -15 2 -26 3 -25 21 8 8 15
15 23 16 17 0 -5 16 -11 36 -12 44 -2 46 -4 48 -42 1 -24 11 -35 11 -13 0 4 4
13 9 21 7 10 5 12 -5 6 -11 -6 -11 -5 -2 5 15 16 34 4 26 -18 -5 -14 -3 -14 9
2 11 14 19 16 34 8 10 -5 24 -12 29 -14 6 -1 9 -7 7 -12 -2 -5 4 -4 12 4 11 8
16 9 16 1 0 -6 9 -11 20 -11 20 0 26 -11 13 -23 -3 -4 -14 -1 -22 7 -12 11
-21 12 -31 5 -13 -9 -12 -10 2 -6 9 3 22 -1 29 -9 9 -11 15 -12 25 -3 8 6 14
8 14 4 0 -4 6 -2 14 4 12 10 18 7 31 -16 14 -24 16 -25 11 -5 -4 19 -2 21 10
11 8 -6 14 -8 14 -3 0 5 6 2 13 -6 7 -8 21 -16 32 -18 11 -2 25 -9 30 -16 6
-7 16 -11 24 -8 9 3 11 0 6 -8 -6 -10 -4 -12 8 -7 10 3 17 2 17 -3 0 -6 -5
-10 -12 -10 -6 0 -8 -3 -5 -6 4 -4 13 -1 22 6 8 7 15 8 15 3 0 -5 15 -15 34
-21 46 -17 88 -52 82 -68 -3 -8 0 -11 9 -7 8 3 12 10 8 16 -3 6 -1 7 5 3 7 -4
12 -14 12 -23 0 -9 6 -13 14 -10 17 7 39 -16 28 -28 -4 -5 -2 -5 5 -2 6 4 18
1 26 -7 8 -8 17 -13 19 -10 3 2 11 -2 18 -11 10 -11 10 -18 1 -29 -8 -10 -9
-16 -1 -21 6 -4 9 -1 8 6 -2 6 3 14 10 16 6 3 12 0 12 -7 0 -6 5 -8 10 -5 6 3
10 -1 10 -10 0 -9 5 -13 10 -10 13 8 13 -8 -1 -22 -8 -8 -8 -13 0 -18 6 -3 10
-1 9 6 -2 6 3 14 10 16 6 3 12 -3 12 -13 0 -9 3 -14 7 -11 9 10 113 -105 106
-116 -3 -6 -1 -7 5 -3 6 3 18 -4 26 -16 12 -17 13 -25 3 -37 -10 -14 -10 -14
4 -4 16 13 29 8 29 -9 0 -5 -5 -6 -12 -2 -7 4 -8 3 -4 -5 4 -6 11 -9 16 -6 11
7 33 -32 25 -45 -4 -6 1 -7 11 -3 12 4 15 3 10 -5 -4 -7 -3 -12 3 -12 10 0 27
-39 23 -53 -1 -5 2 -6 8 -2 10 6 31 -34 24 -46 -2 -4 3 -10 12 -13 8 -3 12
-10 9 -16 -3 -5 -2 -10 3 -10 5 0 15 -19 22 -42 8 -24 17 -45 20 -48 5 -4 23
-56 36 -105 2 -5 10 -35 18 -65 25 -89 31 -155 31 -340 -1 -197 -14 -280 -71
-440 -93 -258 -284 -505 -559 -725 -77 -61 -95 -91 -37 -61 16 8 33 12 37 8 5
-4 5 -2 1 5 -7 13 31 40 49 34 5 -1 7 1 3 4 -9 9 34 45 53 45 7 0 10 3 6 6 -6
6 16 34 26 34 7 0 132 130 173 180 20 25 41 44 46 42 5 -1 7 2 4 7 -3 5 8 26
24 46 17 21 30 41 30 44 0 4 8 16 18 27 19 22 34 48 66 109 12 22 25 43 29 46
5 3 9 9 8 12 0 7 17 49 46 115 17 39 20 46 22 61 0 4 12 7 26 6 13 -2 29 3 36
11 6 7 16 11 22 7 6 -3 7 -1 3 6 -6 9 -11 9 -23 -1 -21 -17 -53 -20 -53 -5 0
15 22 77 33 95 5 6 5 17 1 24 -5 7 -2 9 8 6 8 -4 15 0 15 8 0 7 -4 11 -9 8 -4
-3 -5 12 -2 33 3 21 10 39 14 41 5 2 6 10 3 19 -5 12 -3 14 8 8 12 -8 12 -6 0
8 -11 14 -11 20 -1 32 10 12 10 15 -1 15 -9 0 -10 3 -4 8 6 4 10 31 10 60 -1
28 2 52 5 52 13 0 28 -23 24 -35 -7 -18 9 -26 26 -13 12 8 11 9 -4 4 -13 -5
-17 -2 -13 9 4 8 -1 22 -10 31 -15 15 -15 17 -1 25 16 9 14 44 -3 55 -5 3 -5
-5 0 -19 7 -18 5 -26 -7 -34 -15 -9 -17 -2 -17 71 0 71 2 81 17 80 10 -1 15 2
12 8 -3 5 -15 6 -27 2 -18 -6 -20 -4 -11 7 6 8 14 23 18 33 5 15 4 17 -8 7
-11 -10 -14 -8 -13 11 1 13 -2 33 -7 45 -6 18 -4 22 8 17 8 -3 14 -11 12 -17
-1 -7 -1 -9 1 -4 3 4 10 4 16 0 7 -3 4 3 -6 14 -9 11 -14 22 -11 26 3 3 -5 3
-18 0 -16 -3 -19 -2 -9 5 11 8 11 10 0 15 -10 4 -10 6 -1 6 6 1 12 6 12 13 0
6 -3 8 -7 5 -3 -4 -12 1 -18 10 -11 14 -10 19 3 29 12 9 12 13 2 19 -9 6 -11
4 -5 -6 8 -12 6 -12 -8 0 -9 7 -14 17 -11 23 3 5 0 15 -6 23 -7 8 -10 15 -6
15 4 0 -1 11 -10 25 -9 14 -13 25 -9 25 4 0 0 11 -9 25 -9 14 -14 30 -11 35 3
6 1 10 -4 10 -7 0 -9 16 -7 40 2 21 1 39 -3 38 -3 -1 -16 1 -28 6 -19 6 -21
11 -13 26 7 13 7 21 -2 26 -7 4 -8 3 -4 -4 4 -7 3 -12 -2 -12 -13 0 -53 76
-44 84 4 4 0 6 -8 4 -10 -2 -15 5 -15 22 0 18 -6 26 -23 28 -22 3 -23 4 -5 17
17 13 17 14 -3 9 -12 -3 -25 0 -29 7 -6 8 -4 10 6 5 8 -4 2 2 -14 14 -15 12
-24 27 -21 32 4 6 2 8 -3 5 -6 -4 -19 5 -28 20 -10 14 -36 44 -59 66 -22 21
-40 44 -38 49 1 5 -2 7 -8 3 -5 -3 -10 -2 -10 3 0 5 -11 15 -25 22 -14 8 -24
19 -21 26 3 7 0 11 -7 8 -7 -2 -22 4 -33 14 -11 10 -32 27 -47 37 -22 14 -25
20 -15 27 9 6 6 7 -9 3 -13 -3 -23 -2 -23 3 0 5 -22 21 -50 36 -27 15 -53 33
-57 41 -5 7 -12 14 -18 15 -17 2 -220 104 -227 115 -4 6 -8 7 -8 3 0 -4 -21 3
-47 14 -58 26 -258 97 -293 103 -14 3 -36 8 -50 12 -14 3 -28 6 -33 5 -4 -1
-6 1 -6 5 3 20 -2 27 -10 14 -9 -14 -41 -9 -41 7 0 10 146 9 156 -1 12 -11 26
-8 18 4 -5 8 -1 8 13 0 11 -6 24 -7 28 -3 4 4 4 -3 1 -15 -5 -15 -3 -23 4 -23
6 0 8 5 5 10 -3 6 1 10 9 10 9 0 16 6 16 13 0 7 3 8 8 2 7 -9 27 -14 80 -16
12 -1 25 -5 28 -10 2 -4 11 -6 19 -2 8 3 15 0 15 -6 0 -6 7 -8 15 -5 8 3 20 2
27 -2 7 -5 22 -10 33 -11 10 -2 22 -7 25 -11 5 -7 15 -10 60 -19 13 -2 29 -8
36 -14 6 -5 15 -5 19 -1 5 4 5 1 1 -6 -6 -10 -11 -10 -22 -1 -10 8 -14 8 -14
0 0 -12 10 -14 53 -11 19 1 27 -3 27 -14 0 -9 5 -16 11 -16 5 0 7 4 4 10 -3 6
1 7 9 4 15 -6 20 -18 17 -37 -1 -5 3 -6 9 -2 6 3 8 11 5 16 -4 5 5 4 19 -3 14
-6 26 -15 26 -21 0 -5 9 -20 20 -34 11 -14 20 -22 20 -18 0 5 -7 17 -17 27 -9
10 -13 21 -8 26 4 4 10 1 12 -5 3 -7 11 -13 19 -13 9 0 12 -5 8 -12 -5 -8 -2
-9 9 -5 9 3 19 1 23 -5 4 -6 3 -8 -4 -4 -6 3 -14 1 -18 -6 -4 -7 -4 -10 1 -6
4 4 17 3 28 -3 15 -9 18 -8 12 1 -5 7 6 5 23 -6 28 -16 30 -20 17 -34 -13 -15
-13 -17 0 -17 8 0 12 4 10 8 -3 4 2 9 10 13 9 3 15 0 15 -10 0 -9 5 -12 12 -8
8 5 9 2 4 -11 -5 -15 -4 -16 8 -6 11 9 16 9 22 0 5 -8 3 -9 -6 -4 -9 5 -11 4
-6 -4 4 -6 15 -10 23 -9 9 2 18 -4 20 -12 4 -13 3 -13 -6 0 -8 12 -10 11 -8
-7 1 -20 3 -21 17 -8 13 11 19 12 28 3 7 -7 12 -18 12 -24 0 -7 5 -16 12 -20
7 -5 8 -3 3 6 -5 8 8 1 28 -14 20 -16 34 -32 31 -37 -3 -5 1 -6 9 -3 8 3 20
-2 27 -11 11 -13 10 -15 -1 -12 -8 2 -11 2 -6 0 4 -3 5 -8 2 -13 -3 -4 3 -6
12 -4 24 7 127 -101 119 -123 -5 -13 -4 -13 8 -4 11 9 15 8 20 -5 3 -9 4 -20
1 -25 -4 -5 0 -6 8 -3 10 3 26 -9 43 -33 16 -21 34 -43 39 -49 32 -34 96 -145
89 -155 -4 -7 -3 -9 4 -5 13 8 36 -30 27 -44 -4 -6 -1 -9 7 -8 8 2 13 -6 12
-19 0 -12 3 -20 7 -17 8 4 26 -22 28 -39 0 -4 9 -27 20 -51 10 -24 22 -55 26
-68 3 -12 10 -32 15 -43 12 -27 48 -179 57 -240 10 -65 9 -377 -1 -435 -61
-365 -231 -680 -517 -960 -109 -107 -186 -168 -383 -305 -47 -33 -81 -62 -75
-64 6 -2 24 6 40 18 15 11 31 21 35 21 3 0 34 17 68 37 33 21 65 37 69 35 5
-1 6 2 2 8 -3 5 -2 10 4 10 5 0 16 6 23 13 7 7 29 24 48 37 19 14 44 32 55 42
11 9 31 26 44 37 13 11 28 18 34 14 5 -3 7 -1 4 4 -8 13 27 46 38 36 4 -5 6
-3 2 2 -3 6 27 43 66 82 40 39 77 79 84 89 6 11 16 18 23 16 6 -1 9 2 5 8 -3
5 5 21 19 35 15 14 26 29 26 33 0 4 10 18 21 32 11 14 31 42 45 63 14 21 28
36 33 33 4 -3 7 5 7 17 -1 12 4 22 11 22 6 0 15 4 20 9 5 5 3 6 -4 2 -16 -9
-16 -1 -2 26 9 17 13 18 20 7 6 -10 8 -7 7 11 -2 29 41 121 54 114 4 -3 5 1 2
9 -2 7 5 36 17 63 12 27 23 51 23 54 10 40 32 98 37 95 3 -3 5 6 4 18 -2 13 3
41 11 62 8 22 14 53 14 68 0 16 4 26 10 22 6 -3 10 -1 10 4 0 6 -6 11 -12 11
-8 0 -9 3 -3 8 6 4 11 18 11 32 1 14 5 57 8 95 11 118 11 185 1 189 -10 4 21
10 38 7 4 -1 3 8 -3 19 -12 23 -22 27 -14 5 4 -8 2 -15 -4 -15 -5 0 -12 9 -15
20 -3 11 -1 20 5 20 5 0 6 5 2 12 -8 12 -13 41 -18 109 -1 25 -6 51 -10 58 -4
6 -1 11 8 11 10 0 13 -6 9 -17 -3 -10 -3 -15 1 -12 4 4 9 19 11 35 2 16 2 23
-1 17 -7 -16 -31 -17 -40 -1 -5 7 -2 9 7 6 10 -4 15 1 16 16 0 11 -1 15 -4 8
-3 -6 -9 -10 -13 -7 -5 3 -7 12 -4 20 4 8 9 13 13 11 4 -3 8 4 8 15 2 18 0 18
-18 -3 -15 -17 -19 -18 -15 -6 3 10 1 20 -4 23 -6 4 -10 11 -10 18 0 6 7 2 15
-9 8 -10 15 -14 15 -7 0 6 -8 18 -17 25 -10 7 -20 22 -21 33 -2 11 -8 25 -13
31 -5 6 -4 16 4 24 8 8 8 11 1 7 -19 -11 -25 22 -6 33 14 9 12 10 -8 4 -21 -6
-23 -5 -13 8 13 15 14 58 2 58 -4 0 -10 -6 -12 -12 -9 -21 -28 14 -21 36 4 12
2 16 -5 12 -7 -5 -11 1 -11 14 0 13 -4 19 -11 14 -8 -5 -10 1 -7 19 3 17 1 24
-7 21 -7 -3 -15 1 -18 9 -4 10 2 13 19 11 13 -1 22 2 18 7 -3 5 -9 7 -14 4 -5
-3 -19 -1 -31 5 -20 11 -20 12 -2 33 17 21 17 21 0 7 -16 -12 -20 -12 -28 1
-24 35 -39 69 -36 81 2 7 2 10 0 6 -8 -14 -23 -9 -23 7 0 8 -4 15 -10 15 -5 0
-10 7 -10 15 0 8 -5 15 -11 15 -7 0 -9 9 -6 21 4 16 3 18 -8 9 -9 -8 -14 -6
-19 6 -3 9 -4 19 -1 24 3 4 -3 7 -13 6 -10 0 -16 6 -16 16 1 10 -1 16 -5 15
-10 -3 -61 50 -61 63 0 6 -4 9 -9 5 -6 -3 -21 11 -35 32 -15 21 -26 35 -26 31
0 -4 -12 5 -26 19 -20 20 -23 28 -12 35 9 6 6 7 -9 3 -17 -5 -23 -2 -23 9 0 8
-5 18 -12 22 -7 5 -8 2 -3 -7 4 -8 -3 -4 -16 8 -25 23 -80 70 -102 88 -6 6
-46 33 -87 60 -41 28 -77 53 -80 56 -16 19 -292 144 -385 175 -60 20 -114 37
-120 38 -5 2 -37 8 -70 15 -33 8 -64 14 -70 16 -5 1 -32 5 -60 9 -27 4 -61 10
-75 13 -30 6 -485 14 -491 9z m375 -158 c-3 -4 -9 -8 -15 -8 -5 0 -9 4 -9 8 0
5 7 9 15 9 8 0 12 -4 9 -9z m-161 -157 c4 -1 7 -5 7 -9 0 -5 -13 -8 -29 -8
-17 0 -28 3 -25 8 8 12 -10 10 -24 -4 -9 -9 -12 -9 -12 0 0 9 -7 8 -24 -3 -17
-11 -26 -13 -31 -5 -4 6 -14 9 -22 6 -8 -3 -11 -1 -8 4 3 5 19 8 36 6 16 -2
31 0 34 3 3 6 63 7 98 2z m-413 -53 c0 -5 5 -6 11 -2 8 5 9 2 1 -11 -5 -10
-19 -19 -31 -20 -14 -1 -18 2 -12 8 5 5 7 15 5 22 -3 6 2 12 11 12 8 0 15 -4
15 -9z m-650 -392 c0 -2 -7 -9 -15 -16 -13 -11 -14 -10 -9 4 5 14 24 23 24 12z
m-220 -266 c0 -5 -4 -10 -9 -10 -6 0 -13 5 -16 10 -3 6 1 10 9 10 9 0 16 -4
16 -10z m180 -34 c0 -11 -19 -15 -25 -6 -3 5 1 10 9 10 9 0 16 -2 16 -4z
m2646 -49 c3 -23 -3 -21 -17 4 -8 17 -8 20 2 17 7 -2 13 -12 15 -21z m304 -43
c0 -8 -5 -12 -10 -9 -6 4 -8 11 -5 16 9 14 15 11 15 -7z m-530 -325 c0 -14
-28 -30 -35 -19 -3 5 0 10 7 10 9 0 9 3 -2 10 -12 7 -10 9 8 7 12 0 22 -4 22
-8z m-383 -726 c-4 -3 -2 -12 4 -19 7 -9 2 -22 -21 -48 -17 -19 -29 -40 -25
-46 3 -5 1 -10 -4 -10 -6 0 -11 8 -11 18 -1 16 -1 16 -11 -1 -5 -9 -7 -21 -4
-27 3 -5 -3 -14 -14 -20 -25 -13 -38 5 -14 19 10 6 14 11 10 11 -8 0 1 13 35
50 9 10 14 21 11 24 -3 3 5 3 18 1 23 -4 23 -4 5 10 -17 13 -17 15 -3 15 10 0
14 5 11 15 -4 8 -1 15 7 15 7 0 9 -3 6 -7z m-139 -248 c4 -4 2 -5 -4 -2 -12 7
-55 -24 -56 -40 -1 -14 -24 -43 -30 -38 -3 3 -17 -8 -32 -25 -14 -17 -26 -29
-26 -25 0 3 -6 3 -12 -2 -18 -11 -37 -13 -43 -4 -6 11 18 42 35 44 8 2 38 25
65 53 48 49 82 62 103 39z"/>
<path d="M4446 2875 c-11 -8 -17 -17 -14 -20 2 -3 13 4 23 15 21 23 18 25 -9
5z"/>
<path d="M4262 2660 c-29 -26 -39 -41 -31 -46 8 -4 9 -3 5 4 -4 7 -2 13 3 13
6 1 15 2 21 3 12 1 36 26 25 26 -4 0 0 9 10 20 28 31 14 23 -33 -20z"/>
<path d="M4210 2601 c0 -8 -7 -11 -15 -7 -8 3 -14 2 -14 -2 3 -18 -2 -26 -10
-14 -7 11 -9 11 -14 -1 -7 -19 12 -17 44 5 13 9 21 19 17 24 -5 4 -8 2 -8 -5z"/>
<path d="M3800 4980 c8 -5 18 -6 22 -4 4 3 8 0 8 -6 0 -13 21 -9 23 4 1 5 -14
11 -33 12 -23 2 -29 0 -20 -6z"/>
<path d="M3873 4975 c0 -8 3 -13 5 -10 3 3 12 -1 21 -7 10 -8 9 -4 -3 10 -23
26 -23 26 -23 7z"/>
<path d="M3977 4963 c-8 -12 30 -29 40 -19 4 3 -1 6 -9 6 -9 0 -18 5 -20 12
-3 9 -6 9 -11 1z"/>
<path d="M4028 4958 c5 -5 16 -8 23 -6 8 3 3 7 -10 11 -17 4 -21 3 -13 -5z"/>
<path d="M4081 4943 c7 -12 15 -20 18 -17 3 2 -3 12 -13 22 -17 16 -18 16 -5
-5z"/>
<path d="M4110 4946 c0 -12 24 -31 39 -31 8 0 16 6 19 14 3 10 0 12 -13 7 -10
-3 -24 -1 -31 5 -8 6 -14 8 -14 5z"/>
<path d="M4036 4927 c3 -10 9 -15 12 -12 3 3 0 11 -7 18 -10 9 -11 8 -5 -6z"/>
<path d="M4210 4910 c0 -9 39 -25 45 -18 2 2 -7 8 -21 15 -13 6 -24 7 -24 3z"/>
<path d="M4266 4882 c-2 -4 4 -8 15 -8 10 0 19 4 19 8 0 4 -6 8 -14 8 -8 0
-17 -4 -20 -8z"/>
<path d="M4455 4809 c-4 -6 -5 -12 -2 -15 2 -3 7 2 10 11 7 17 1 20 -8 4z"/>
<path d="M3733 4787 c-2 -19 -2 -19 13 -1 12 14 14 15 11 3 -3 -9 1 -16 8 -16
8 0 11 7 7 15 -4 11 -1 13 9 7 8 -5 11 -4 6 1 -16 17 -53 12 -54 -9z"/>
<path d="M3395 4779 c-4 -6 -5 -12 -2 -15 2 -3 7 2 10 11 7 17 1 20 -8 4z"/>
<path d="M3575 4780 c3 -5 8 -10 11 -10 2 0 4 5 4 10 0 6 -5 10 -11 10 -5 0
-7 -4 -4 -10z"/>
<path d="M3880 4784 c0 -6 7 -19 16 -30 14 -18 14 -18 3 6 -14 31 -19 36 -19
24z"/>
<path d="M3912 4777 c10 -8 14 -18 10 -22 -4 -5 -1 -5 6 -1 17 10 15 14 -10
26 -21 10 -21 10 -6 -3z"/>
<path d="M3860 4771 c0 -6 4 -13 10 -16 6 -3 7 1 4 9 -7 18 -14 21 -14 7z"/>
<path d="M4016 4753 c-3 -3 -6 -11 -6 -17 0 -6 5 -4 10 4 7 11 10 11 10 2 0
-8 5 -10 12 -6 8 5 9 2 5 -9 -9 -25 0 -21 14 6 6 12 8 19 4 15 -4 -4 -15 -3
-25 2 -10 5 -20 6 -24 3z"/>
<path d="M3027 4743 c-4 -3 -2 -12 4 -20 15 -18 4 -17 -25 3 -16 10 -26 12
-31 4 -3 -6 -10 -8 -15 -5 -5 3 -15 -3 -22 -14 -10 -16 -15 -18 -27 -8 -12 10
-13 9 -6 -2 6 -11 4 -13 -8 -8 -9 3 -19 2 -22 -4 -4 -5 -1 -8 6 -7 9 2 13 -7
13 -25 -1 -15 1 -25 5 -21 6 6 7 11 10 42 1 15 3 15 11 2 9 -13 10 -13 10 0 0
13 1 13 10 0 8 -13 11 -13 22 -1 10 10 10 12 1 7 -15 -8 -18 10 -4 18 10 6 34
-18 26 -26 -3 -2 1 -5 9 -5 15 0 16 14 3 35 -10 15 -2 15 23 0 23 -15 38 -4
22 15 -7 8 -9 17 -5 20 3 4 4 7 1 7 -2 0 -8 -3 -11 -7z m-40 -20 c-4 -3 -1
-13 6 -22 11 -14 10 -14 -5 -2 -16 12 -16 31 -1 31 4 0 3 -3 0 -7z"/>
<path d="M4170 4691 c0 -6 4 -13 10 -16 6 -3 7 1 4 9 -7 18 -14 21 -14 7z"/>
<path d="M4255 4660 c-3 -5 -1 -10 4 -10 6 0 11 5 11 10 0 6 -2 10 -4 10 -3 0
-8 -4 -11 -10z"/>
<path d="M4281 4644 c0 -11 3 -14 6 -6 3 7 2 16 -1 19 -3 4 -6 -2 -5 -13z"/>
<path d="M2835 4640 c3 -5 8 -10 11 -10 2 0 4 5 4 10 0 6 -5 10 -11 10 -5 0
-7 -4 -4 -10z"/>
<path d="M2855 4620 c-3 -6 1 -7 9 -4 18 7 21 14 7 14 -6 0 -13 -4 -16 -10z"/>
<path d="M2690 4578 c0 -6 -3 -8 -7 -4 -4 3 -31 -17 -60 -46 -30 -29 -57 -52
-61 -50 -4 1 -7 -1 -7 -5 0 -5 -4 -14 -9 -21 -4 -7 -5 -16 -2 -19 3 -4 6 -1 6
6 0 7 5 9 12 5 6 -4 8 -3 5 3 -4 6 3 19 15 29 21 19 21 19 15 -1 -7 -19 -6
-19 7 -2 14 19 31 24 20 6 -3 -6 5 -4 18 5 14 9 29 13 33 9 5 -5 4 -1 -3 8
-12 16 -7 29 10 29 5 0 7 -4 4 -8 -3 -5 1 -9 8 -9 7 0 13 6 13 13 0 7 -5 10
-10 7 -5 -3 -7 0 -5 8 3 8 11 13 17 11 9 -2 9 3 1 18 -12 22 -20 26 -20 8z
m-15 -38 c-14 -14 -23 -29 -20 -32 3 -3 -1 -8 -10 -11 -8 -4 -15 -1 -15 5 0 7
-6 6 -17 -3 -10 -7 -1 5 20 27 21 23 44 41 53 41 10 0 7 -8 -11 -27z"/>
<path d="M2649 4533 l-24 -28 28 24 c25 23 32 31 24 31 -2 0 -14 -12 -28 -27z"/>
<path d="M4415 4579 c-4 -5 -1 -8 7 -7 7 2 12 -3 10 -10 -1 -8 2 -11 8 -7 5 3
10 10 10 15 0 12 -29 20 -35 9z"/>
<path d="M4457 4556 c-4 -10 -1 -13 8 -9 8 3 12 9 9 14 -7 12 -11 11 -17 -5z"/>
<path d="M5030 4540 c-9 -6 -10 -10 -3 -10 6 0 15 5 18 10 8 12 4 12 -15 0z"/>
<path d="M4620 4451 c0 -7 -5 -9 -12 -5 -7 5 -8 3 -3 -5 5 -9 10 -10 18 -2 6
6 8 14 4 18 -4 3 -7 1 -7 -6z"/>
<path d="M4875 4360 c3 -5 8 -10 11 -10 2 0 4 5 4 10 0 6 -5 10 -11 10 -5 0
-7 -4 -4 -10z"/>
<path d="M4105 4331 c-7 -13 5 -19 39 -19 17 0 23 4 16 8 -7 4 -21 5 -33 2
-14 -3 -18 -1 -13 6 4 7 5 12 2 12 -3 0 -7 -4 -11 -9z"/>
<path d="M4915 4320 c3 -5 8 -10 11 -10 2 0 4 5 4 10 0 6 -5 10 -11 10 -5 0
-7 -4 -4 -10z"/>
<path d="M4273 4265 c0 -8 4 -12 8 -9 4 2 11 -1 16 -8 4 -7 16 -14 25 -14 10
-1 15 2 12 7 -3 5 -10 9 -16 9 -6 0 -19 7 -28 15 -14 13 -17 13 -17 0z"/>
<path d="M5262 4240 c7 -11 17 -20 22 -20 5 0 1 9 -9 20 -10 11 -20 20 -22 20
-2 0 2 -9 9 -20z"/>
<path d="M4192 4241 c-11 -7 -11 -9 0 -14 9 -3 15 1 15 9 0 8 -1 14 -1 14 -1
0 -7 -4 -14 -9z"/>
<path d="M5036 4153 c-6 -14 -5 -15 5 -6 7 7 10 15 7 18 -3 3 -9 -2 -12 -12z"/>
<path d="M4295 4141 c-3 -5 -2 -12 3 -15 5 -3 9 1 9 9 0 17 -3 19 -12 6z"/>
<path d="M4615 4140 c3 -5 8 -10 11 -10 2 0 4 5 4 10 0 6 -5 10 -11 10 -5 0
-7 -4 -4 -10z"/>
<path d="M1927 4124 c-3 -3 -4 -11 -1 -18 2 -6 -5 -12 -17 -13 -18 -2 -19 0
-7 15 11 15 11 15 -2 6 -8 -6 -31 -10 -50 -9 -19 1 -41 -2 -47 -8 -7 -5 -13
-6 -13 -1 0 5 -7 0 -16 -11 -12 -16 -16 -17 -23 -6 -6 9 -11 10 -15 2 -4 -6
-2 -11 4 -11 6 0 8 -5 4 -11 -4 -7 1 -7 16 1 16 9 25 9 33 1 8 -8 14 -5 22 10
11 19 13 19 27 5 15 -14 17 -14 22 0 4 11 12 14 24 9 28 -11 52 -14 51 -7 -3
19 2 23 16 12 9 -7 18 -10 22 -6 3 3 1 6 -6 6 -7 0 -10 4 -7 8 2 4 1 14 -5 22
-6 10 -9 11 -9 3 0 -7 -5 -13 -11 -13 -5 0 -7 5 -4 10 7 11 2 14 -8 4z m-113
-39 c-7 -18 -20 -19 -30 -3 -4 6 -3 8 4 4 6 -3 13 -2 17 4 9 15 15 12 9 -5z
m50 3 c-3 -4 -11 -5 -19 -1 -21 7 -19 12 4 10 11 0 18 -5 15 -9z"/>
<path d="M1986 4104 c8 -11 12 -23 9 -26 -3 -2 2 -5 10 -5 11 0 12 4 5 11 -14
14 -13 23 3 23 6 0 17 2 22 3 21 5 36 0 30 -11 -4 -6 2 -5 14 3 12 7 21 17 21
22 0 4 -7 3 -15 -4 -8 -7 -15 -8 -15 -4 0 5 -22 9 -49 9 -47 0 -48 0 -35 -21z"/>
<path d="M2154 4112 c-9 -14 -8 -18 6 -18 11 0 15 6 12 18 -2 10 -5 18 -6 18
-1 0 -6 -8 -12 -18z"/>
<path d="M5350 4121 c0 -6 4 -12 8 -15 5 -3 9 1 9 9 0 8 -4 15 -9 15 -4 0 -8
-4 -8 -9z"/>
<path d="M2299 4087 c24 -26 38 -36 27 -18 -4 5 -1 12 4 14 6 3 5 4 -2 3 -7
-2 -22 4 -33 13 -14 11 -12 7 4 -12z"/>
<path d="M2350 4096 c0 -2 7 -7 16 -10 8 -3 12 -2 9 4 -6 10 -25 14 -25 6z"/>
<path d="M4502 4084 c10 -10 20 -16 22 -13 3 3 -5 11 -17 18 -21 13 -21 12 -5
-5z"/>
<path d="M2227 4079 c7 -7 15 -10 18 -7 3 3 -2 9 -12 12 -14 6 -15 5 -6 -5z"/>
<path d="M4680 4080 c-9 -6 -10 -10 -3 -10 6 0 15 5 18 10 8 12 4 12 -15 0z"/>
<path d="M2390 4071 c0 -7 -5 -9 -12 -5 -7 5 -8 3 -3 -5 5 -9 10 -10 18 -2 6
6 8 14 4 18 -4 3 -7 1 -7 -6z"/>
<path d="M1876 4058 c3 -5 10 -6 15 -3 13 9 11 12 -6 12 -8 0 -12 -4 -9 -9z"/>
<path d="M2416 4047 c3 -10 9 -15 12 -12 3 3 0 11 -7 18 -10 9 -11 8 -5 -6z"/>
<path d="M2475 4049 c-4 -6 -5 -12 -2 -15 2 -3 7 2 10 11 7 17 1 20 -8 4z"/>
<path d="M1770 4039 c0 -5 5 -7 10 -4 6 3 10 8 10 11 0 2 -4 4 -10 4 -5 0 -10
-5 -10 -11z"/>
<path d="M4395 4040 c-6 -10 19 -60 30 -60 3 0 -2 11 -11 25 -8 13 -13 29 -9
35 3 5 4 10 1 10 -3 0 -8 -5 -11 -10z"/>
<path d="M2546 4027 c3 -8 11 -14 19 -14 20 0 19 4 -5 17 -15 8 -18 8 -14 -3z"/>
<path d="M2515 4020 c3 -5 8 -10 11 -10 2 0 4 5 4 10 0 6 -5 10 -11 10 -5 0
-7 -4 -4 -10z"/>
<path d="M5134 4000 c0 -13 4 -16 10 -10 7 7 7 13 0 20 -6 6 -10 3 -10 -10z"/>
<path d="M4737 3953 c3 -7 6 -13 8 -13 2 0 5 6 8 13 3 8 -1 14 -8 14 -7 0 -11
-6 -8 -14z"/>
<path d="M5126 3959 c4 -8 30 -6 38 2 3 3 -5 5 -19 5 -13 0 -22 -3 -19 -7z"/>
<path d="M1847 3910 c-79 -17 -202 -57 -235 -78 -6 -5 -14 -28 -17 -53 -3 -24
-8 -53 -10 -65 -2 -11 -7 -44 -11 -72 l-6 -52 30 0 c22 0 32 -6 37 -20 3 -11
11 -20 17 -20 7 0 6 5 -1 14 -9 11 -9 16 0 22 8 4 9 3 5 -4 -4 -7 -3 -12 3
-12 5 0 11 5 13 12 3 7 7 5 11 -6 4 -9 3 -15 -1 -12 -5 3 -9 -1 -9 -7 0 -19
34 -18 48 1 11 14 11 15 -1 5 -18 -17 -27 -16 -27 2 0 11 8 13 31 9 28 -5 94
-12 152 -16 21 -2 23 -28 3 -28 -5 0 -9 -5 -9 -12 0 -6 3 -8 7 -5 3 4 13 1 22
-6 14 -10 14 -10 3 5 -11 13 -11 18 0 24 18 12 69 13 62 2 -3 -4 -10 -6 -15
-3 -5 4 -15 2 -23 -2 -12 -7 -11 -10 2 -23 14 -13 15 -12 9 2 -4 12 -1 17 11
17 9 0 26 2 37 4 11 2 25 2 30 -2 6 -3 18 -6 28 -7 9 -1 18 -3 20 -4 1 -1 11
-4 22 -5 42 -5 105 -26 101 -33 -3 -5 5 -14 17 -22 20 -12 21 -12 8 4 -8 9
-11 19 -7 23 3 3 6 1 6 -6 0 -6 6 -11 13 -10 24 3 38 -1 33 -10 -3 -5 4 -9 17
-9 20 0 58 -7 65 -12 1 -2 5 -3 10 -4 4 -1 37 -17 75 -36 57 -29 66 -37 61
-54 -6 -21 -6 -21 10 -1 13 17 15 17 16 4 0 -9 6 -16 13 -15 24 2 130 -81 121
-95 -3 -5 0 -9 7 -9 14 0 46 -36 54 -61 4 -11 10 -19 15 -19 13 0 42 -69 34
-82 -4 -7 -3 -8 4 -4 7 4 13 2 13 -3 2 -14 4 -23 12 -41 24 -58 29 -241 8
-316 -16 -56 -13 -74 5 -37 10 19 21 30 28 26 6 -3 8 -3 4 1 -4 5 6 44 22 87
16 43 26 79 23 79 -4 0 -2 5 4 11 6 6 9 18 6 25 -3 8 -1 14 5 14 6 0 9 11 8
25 -2 13 1 22 5 19 5 -3 9 2 9 11 0 9 -4 14 -8 11 -4 -2 -8 4 -9 14 -2 21 23
35 33 18 5 -7 2 -8 -6 -3 -9 6 -11 4 -5 -5 6 -9 4 -11 -5 -5 -9 6 -11 4 -6 -4
6 -9 13 -8 27 5 20 18 25 29 9 19 -5 -3 -10 -1 -10 4 0 6 -6 11 -14 11 -8 0
-17 7 -20 16 -3 8 -2 12 4 9 5 -3 7 8 4 27 -3 18 -6 49 -7 68 -1 19 -6 41 -10
48 -5 8 -3 12 8 12 9 0 14 -4 10 -9 -3 -5 0 -13 7 -17 7 -4 10 -4 6 1 -4 4 -2
15 5 23 8 11 8 14 0 9 -6 -4 -14 -3 -18 3 -4 6 -12 7 -18 3 -8 -4 -7 -1 1 9
10 13 10 18 1 24 -8 5 -9 3 -4 -6 5 -9 4 -11 -4 -6 -6 4 -9 11 -6 16 3 5 1 11
-5 15 -6 4 -8 10 -5 15 3 5 2 18 -4 28 -6 11 -6 24 0 34 7 13 4 18 -12 23 -11
4 -18 9 -15 12 3 3 -4 19 -15 34 -11 16 -17 29 -14 29 4 0 -1 8 -10 17 -16 16
-16 18 1 31 18 14 18 14 -1 8 -22 -6 -53 28 -35 39 6 3 10 12 10 18 0 7 -4 6
-10 -3 -8 -12 -15 -9 -39 19 -17 19 -28 38 -25 43 3 4 0 8 -6 8 -6 0 -18 6
-26 14 -11 11 -11 16 -1 19 7 4 6 6 -4 6 -9 1 -36 19 -59 41 -23 22 -46 40
-51 40 -5 0 -9 4 -9 9 0 5 -13 14 -30 21 -16 7 -27 16 -24 21 3 5 2 9 -3 8
-21 -4 -34 2 -27 13 4 7 3 8 -5 4 -6 -4 -17 -3 -24 2 -13 10 -140 62 -166 67
-9 2 -38 9 -66 15 -82 20 -249 20 -348 0z"/>
<path d="M4770 3920 c0 -5 5 -10 11 -10 5 0 7 5 4 10 -3 6 -8 10 -11 10 -2 0
-4 -4 -4 -10z"/>
<path d="M2746 3898 c3 -5 10 -6 15 -3 13 9 11 12 -6 12 -8 0 -12 -4 -9 -9z"/>
<path d="M4490 3900 c-9 -6 -10 -10 -3 -10 6 0 15 5 18 10 8 12 4 12 -15 0z"/>
<path d="M5430 3903 c1 -5 8 -19 16 -33 10 -17 13 -18 8 -5 -3 11 -7 26 -7 33
0 6 -4 12 -9 12 -4 0 -8 -3 -8 -7z"/>
<path d="M5155 3890 c3 -5 8 -10 11 -10 2 0 4 5 4 10 0 6 -5 10 -11 10 -5 0
-7 -4 -4 -10z"/>
<path d="M5473 3875 c0 -8 4 -12 9 -9 5 3 6 10 3 15 -9 13 -12 11 -12 -6z"/>
<path d="M5175 3869 c-4 -6 -5 -12 -2 -15 2 -3 7 2 10 11 7 17 1 20 -8 4z"/>
<path d="M4795 3840 c-3 -5 -1 -10 4 -10 6 0 11 5 11 10 0 6 -2 10 -4 10 -3 0
-8 -4 -11 -10z"/>
<path d="M5470 3841 c0 -6 4 -13 10 -16 6 -3 7 1 4 9 -7 18 -14 21 -14 7z"/>
<path d="M2835 3831 c-3 -5 -2 -12 3 -15 5 -3 9 1 9 9 0 17 -3 19 -12 6z"/>
<path d="M4810 3815 c-11 -13 -10 -14 4 -9 9 3 16 10 16 15 0 13 -6 11 -20 -6z"/>
<path d="M5195 3780 c-3 -5 -1 -10 4 -10 6 0 11 5 11 10 0 6 -2 10 -4 10 -3 0
-8 -4 -11 -10z"/>
<path d="M4813 3764 c8 -9 47 -13 51 -6 2 4 -9 8 -25 8 -17 1 -28 0 -26 -2z"/>
<path d="M4577 3744 c-3 -3 -3 -13 0 -22 4 -10 2 -13 -5 -8 -8 5 -10 2 -6 -9
8 -20 16 -12 19 20 3 26 2 29 -8 19z"/>
<path d="M5225 3740 c-3 -6 1 -7 9 -4 18 7 21 14 7 14 -6 0 -13 -4 -16 -10z"/>
<path d="M4830 3729 c0 -5 5 -7 10 -4 6 3 10 8 10 11 0 2 -4 4 -10 4 -5 0 -10
-5 -10 -11z"/>
<path d="M4855 3719 c-4 -6 -5 -12 -2 -15 2 -3 7 2 10 11 7 17 1 20 -8 4z"/>
<path d="M4579 3673 c-12 -16 -12 -17 2 -6 9 7 20 9 24 5 5 -4 5 -1 1 6 -9 16
-11 15 -27 -5z"/>
<path d="M5516 3658 c3 -4 1 -8 -4 -8 -5 0 -12 -9 -15 -20 -7 -26 -5 -25 20 8
15 21 17 29 8 29 -8 0 -12 -4 -9 -9z"/>
<path d="M4860 3620 c-6 -11 -8 -20 -6 -20 3 0 10 9 16 20 6 11 8 20 6 20 -3
0 -10 -9 -16 -20z"/>
<path d="M2711 3613 c-1 -17 16 -25 25 -12 4 7 3 9 -4 5 -5 -3 -13 0 -15 6 -4
9 -6 10 -6 1z"/>
<path d="M5505 3600 c-4 -6 -1 -17 5 -25 10 -12 10 -15 0 -15 -8 0 -11 -3 -7
-6 3 -3 11 -3 17 1 8 5 8 10 0 20 -7 8 -9 19 -5 25 3 5 4 10 1 10 -3 0 -8 -5
-11 -10z"/>
<path d="M4865 3589 c-4 -6 -4 -13 -1 -16 3 -4 6 -1 6 6 0 7 5 9 12 5 7 -4 8
-3 4 4 -9 15 -13 15 -21 1z"/>
<path d="M4605 3580 c3 -5 8 -10 11 -10 2 0 4 5 4 10 0 6 -5 10 -11 10 -5 0
-7 -4 -4 -10z"/>
<path d="M5530 3586 c0 -2 7 -7 16 -10 8 -3 12 -2 9 4 -6 10 -25 14 -25 6z"/>
<path d="M4877 3564 c-3 -3 -3 -13 0 -22 5 -11 3 -13 -8 -7 -12 8 -12 6 0 -8
17 -22 19 -21 17 6 -1 12 3 25 9 29 7 5 6 8 -1 8 -6 0 -13 -3 -17 -6z"/>
<path d="M1750 3550 c0 -6 4 -9 9 -6 5 4 12 1 14 -4 3 -6 4 -5 3 2 -3 15 -26
23 -26 8z"/>
<path d="M1806 3541 c16 -18 54 -18 54 1 0 5 -8 4 -19 -1 -14 -8 -20 -7 -25 4
-3 8 -10 15 -16 15 -5 0 -3 -8 6 -19z"/>
<path d="M4604 3549 c-3 -6 -2 -15 3 -20 5 -5 9 -1 9 11 0 23 -2 24 -12 9z"/>
<path d="M5233 3539 c-2 -24 9 -31 27 -17 12 8 12 9 -2 4 -10 -3 -18 -1 -18 3
0 5 5 11 12 13 8 3 7 6 -3 10 -10 4 -15 -1 -16 -13z"/>
<path d="M5522 3527 c10 -8 14 -18 10 -22 -4 -5 -1 -5 6 -1 17 10 15 14 -10
26 -21 10 -21 10 -6 -3z"/>
<path d="M1975 3520 c-3 -5 -1 -10 4 -10 6 0 11 5 11 10 0 6 -2 10 -4 10 -3 0
-8 -4 -11 -10z"/>
<path d="M2010 3506 c7 -7 13 -7 20 0 6 6 3 10 -10 10 -13 0 -16 -4 -10 -10z"/>
<path d="M2046 3505 c-3 -8 -1 -14 4 -12 5 1 16 -7 25 -18 15 -18 15 -18 0 13
-18 36 -21 38 -29 17z"/>
<path d="M1950 3500 c0 -5 5 -10 11 -10 5 0 7 5 4 10 -3 6 -8 10 -11 10 -2 0
-4 -4 -4 -10z"/>
<path d="M2090 3505 c1 -5 8 -19 17 -30 13 -16 15 -17 10 -2 -7 18 8 24 16 7
3 -6 4 -5 3 2 -2 7 -9 13 -17 13 -8 0 -17 5 -21 10 -5 7 -8 7 -8 0z"/>
<path d="M4609 3508 c-4 -11 -6 -70 -2 -60 3 6 10 9 16 5 7 -4 5 1 -3 12 -14
16 -13 17 7 11 13 -4 24 -2 29 5 4 7 3 9 -4 6 -5 -4 -18 -4 -27 -1 -13 5 -14
8 -3 15 10 7 10 9 1 9 -7 0 -13 -1 -14 -2z"/>
<path d="M4895 3499 c-4 -6 -5 -12 -2 -15 2 -3 7 2 10 11 7 17 1 20 -8 4z"/>
<path d="M5254 3499 c-3 -6 -2 -15 3 -20 5 -5 9 -1 10 11 2 22 -2 25 -13 9z"/>
<path d="M2150 3480 c0 -5 5 -10 10 -10 6 0 10 5 10 10 0 6 -4 10 -10 10 -5 0
-10 -4 -10 -10z"/>
<path d="M4870 3462 c0 -16 37 -30 51 -20 11 8 10 9 -4 4 -11 -3 -20 0 -23 9
-6 15 -24 21 -24 7z"/>
<path d="M2817 3453 c-9 -8 12 -33 27 -33 6 0 3 5 -7 11 -9 6 -15 14 -12 20 7
10 2 12 -8 2z"/>
<path d="M5550 3456 c0 -2 8 -10 18 -17 15 -13 16 -12 3 4 -13 16 -21 21 -21
13z"/>
<path d="M2226 3442 c-3 -5 1 -9 9 -9 8 0 12 4 9 9 -3 4 -7 8 -9 8 -2 0 -6 -4
-9 -8z"/>
<path d="M2286 3437 c3 -10 9 -15 12 -12 3 3 0 11 -7 18 -10 9 -11 8 -5 -6z"/>
<path d="M5519 3433 c-12 -16 -12 -17 2 -6 9 7 20 9 24 5 5 -4 5 -1 1 6 -9 16
-11 15 -27 -5z"/>
<path d="M2316 3432 c-3 -5 1 -9 9 -9 8 0 12 4 9 9 -3 4 -7 8 -9 8 -2 0 -6 -4
-9 -8z"/>
<path d="M4628 3433 c7 -3 16 -2 19 1 4 3 -2 6 -13 5 -11 0 -14 -3 -6 -6z"/>
<path d="M4874 3421 c0 -11 2 -18 5 -16 2 3 10 0 17 -6 8 -7 14 -7 19 1 4 6 2
9 -4 8 -5 -2 -16 5 -23 15 -13 18 -14 17 -14 -2z"/>
<path d="M2350 3420 c0 -5 5 -10 11 -10 5 0 7 5 4 10 -3 6 -8 10 -11 10 -2 0
-4 -4 -4 -10z"/>
<path d="M5526 3404 c-9 -8 -16 -20 -16 -26 0 -6 1 -9 3 -7 1 2 11 14 21 27
22 25 16 30 -8 6z"/>
<path d="M2320 3406 c0 -2 7 -7 16 -10 8 -3 12 -2 9 4 -6 10 -25 14 -25 6z"/>
<path d="M2387 3395 c3 -8 9 -13 13 -10 5 3 10 0 12 -7 3 -8 6 -9 11 -1 3 5
-5 15 -18 21 -20 9 -23 9 -18 -3z"/>
<path d="M2850 3400 c0 -5 5 -10 11 -10 5 0 7 5 4 10 -3 6 -8 10 -11 10 -2 0
-4 -4 -4 -10z"/>
<path d="M5270 3405 c0 -5 5 -17 10 -25 5 -8 10 -10 10 -5 0 6 -5 17 -10 25
-5 8 -10 11 -10 5z"/>
<path d="M4870 3381 c0 -5 6 -14 14 -20 10 -9 15 -8 19 3 4 11 1 13 -10 9 -11
-4 -14 -2 -9 5 4 7 2 12 -3 12 -6 0 -11 -4 -11 -9z"/>
<path d="M5530 3371 c0 -6 4 -13 10 -16 6 -3 7 1 4 9 -7 18 -14 21 -14 7z"/>
<path d="M2440 3363 c8 -3 19 -11 23 -17 6 -7 7 -6 4 4 -2 8 -12 16 -23 17
-13 2 -15 1 -4 -4z"/>
<path d="M4916 3353 c-6 -14 -5 -15 5 -6 7 7 10 15 7 18 -3 3 -9 -2 -12 -12z"/>
<path d="M5516 3335 c-9 -26 -7 -32 5 -12 6 10 9 21 6 23 -2 3 -7 -2 -11 -11z"/>
<path d="M5230 3318 c0 -6 3 -8 7 -5 3 4 11 0 17 -8 8 -11 15 -12 26 -4 13 9
13 10 -2 6 -9 -3 -19 1 -22 9 -6 17 -26 19 -26 2z"/>
<path d="M2879 3293 c-13 -15 -12 -15 9 -4 23 12 28 21 13 21 -5 0 -15 -7 -22
-17z"/>
<path d="M5535 3300 c3 -5 8 -10 11 -10 2 0 4 5 4 10 0 6 -5 10 -11 10 -5 0
-7 -4 -4 -10z"/>
<path d="M4870 3290 c0 -5 5 -10 10 -10 6 0 10 5 10 10 0 6 -4 10 -10 10 -5 0
-10 -4 -10 -10z"/>
<path d="M5516 3287 c3 -10 9 -15 12 -12 3 3 0 11 -7 18 -10 9 -11 8 -5 -6z"/>
<path d="M2575 3280 c3 -5 8 -10 11 -10 2 0 4 5 4 10 0 6 -5 10 -11 10 -5 0
-7 -4 -4 -10z"/>
<path d="M5241 3274 c0 -11 3 -14 6 -6 3 7 2 16 -1 19 -3 4 -6 -2 -5 -13z"/>
<path d="M2902 3258 c7 -15 15 -23 17 -17 2 6 -4 18 -13 27 -15 15 -15 15 -4
-10z"/>
<path d="M4870 3258 c0 -11 12 -10 30 2 12 7 10 9 -8 7 -12 0 -22 -5 -22 -9z"/>
<path d="M5535 3260 c-3 -5 -1 -10 4 -10 6 0 11 5 11 10 0 6 -2 10 -4 10 -3 0
-8 -4 -11 -10z"/>
<path d="M2615 3249 c-4 -6 -5 -12 -2 -15 2 -3 7 2 10 11 7 17 1 20 -8 4z"/>
<path d="M4856 3237 c3 -10 9 -15 12 -12 3 3 0 11 -7 18 -10 9 -11 8 -5 -6z"/>
<path d="M5270 3241 c0 -6 4 -13 10 -16 6 -3 7 1 4 9 -7 18 -14 21 -14 7z"/>
<path d="M5511 3208 c5 -10 13 -18 16 -18 3 0 3 3 0 7 -4 3 0 11 8 17 13 9 11
11 -9 11 -20 0 -22 -3 -15 -17z"/>
<path d="M5241 3215 c0 -5 3 -16 8 -23 7 -11 9 -10 14 3 4 9 3 14 -2 10 -5 -3
-12 1 -14 7 -3 7 -6 9 -6 3z"/>
<path d="M4866 3202 c-2 -4 4 -8 14 -8 10 0 16 4 14 8 -3 4 -9 8 -14 8 -5 0
-11 -4 -14 -8z"/>
<path d="M5233 3160 c0 -23 3 -28 9 -16 5 9 5 23 0 32 -6 12 -9 7 -9 -16z"/>
<path d="M5490 3186 c0 -2 7 -7 16 -10 8 -3 12 -2 9 4 -6 10 -25 14 -25 6z"/>
<path d="M2901 3165 c0 -5 6 -18 13 -28 12 -16 14 -15 14 9 0 16 -3 21 -8 14
-6 -9 -9 -9 -13 1 -3 8 -6 10 -6 4z"/>
<path d="M5535 3160 c3 -5 8 -10 11 -10 2 0 4 5 4 10 0 6 -5 10 -11 10 -5 0
-7 -4 -4 -10z"/>
<path d="M5501 3157 c2 -1 13 -9 24 -17 19 -14 19 -14 6 3 -7 9 -18 17 -24 17
-6 0 -8 -1 -6 -3z"/>
<path d="M4839 3133 c-13 -16 -12 -17 4 -4 16 13 21 21 13 21 -2 0 -10 -8 -17
-17z"/>
<path d="M5234 3112 c3 -5 0 -13 -6 -15 -9 -4 -10 -6 -1 -6 17 -1 25 16 12 25
-7 4 -9 3 -5 -4z"/>
<path d="M2914 3076 c0 -19 3 -33 5 -30 2 2 9 -1 16 -6 8 -7 12 -5 12 5 0 8
-4 12 -8 10 -4 -3 -10 2 -13 11 -9 24 -7 28 8 15 11 -9 16 -9 22 0 4 8 3 9 -5
5 -6 -4 -14 0 -17 8 -10 27 -20 18 -20 -18z"/>
<path d="M4595 3099 c-4 -6 -5 -12 -2 -15 2 -3 7 2 10 11 7 17 1 20 -8 4z"/>
<path d="M4830 3096 c7 -7 13 -7 20 0 6 6 3 10 -10 10 -13 0 -16 -4 -10 -10z"/>
<path d="M5202 3058 c-15 -15 -15 -28 0 -28 6 0 8 3 5 7 -4 3 -2 12 4 20 14
16 7 17 -9 1z"/>
<path d="M5508 3063 c7 -3 16 -2 19 1 4 3 -2 6 -13 5 -11 0 -14 -3 -6 -6z"/>
<path d="M4533 3038 c-2 -5 -1 -8 3 -8 4 0 -1 -9 -11 -20 -10 -11 -15 -20 -10
-20 4 0 2 -7 -5 -15 -10 -12 -9 -16 6 -21 11 -4 23 -9 28 -12 5 -3 6 1 1 8
-15 24 -15 62 0 56 9 -3 12 0 9 8 -3 7 5 17 18 23 22 10 22 11 -5 9 -16 0 -31
-4 -34 -8z"/>
<path d="M4850 3040 c0 -5 5 -10 11 -10 5 0 7 5 4 10 -3 6 -8 10 -11 10 -2 0
-4 -4 -4 -10z"/>
<path d="M5493 3033 c0 -9 4 -10 14 -2 7 6 13 12 13 14 0 1 -6 2 -13 2 -8 0
-14 -6 -14 -14z"/>
<path d="M4575 3020 c-3 -5 -1 -10 4 -10 6 0 11 5 11 10 0 6 -2 10 -4 10 -3 0
-8 -4 -11 -10z"/>
<path d="M5464 2997 c1 -22 3 -25 12 -13 8 12 14 13 24 3 12 -10 12 -9 1 5 -7
10 -17 16 -21 13 -5 -3 -10 1 -13 7 -2 7 -4 1 -3 -15z"/>
<path d="M4799 2993 c-13 -16 -12 -17 4 -4 16 13 21 21 13 21 -2 0 -10 -8 -17
-17z"/>
<path d="M5175 3000 c-3 -5 -1 -10 4 -10 6 0 11 5 11 10 0 6 -2 10 -4 10 -3 0
-8 -4 -11 -10z"/>
<path d="M2933 2978 c-19 -25 -24 -38 -14 -38 6 0 11 6 11 14 0 8 6 16 13 19
6 2 9 7 6 11 -3 4 -11 1 -16 -6z"/>
<path d="M5486 2962 c-3 -5 1 -9 9 -9 8 0 12 4 9 9 -3 4 -7 8 -9 8 -2 0 -6 -4
-9 -8z"/>
<path d="M5466 2937 c3 -10 9 -15 12 -12 3 3 0 11 -7 18 -10 9 -11 8 -5 -6z"/>
<path d="M2903 2910 c-10 -15 -9 -19 3 -24 16 -6 10 -26 -7 -26 -6 0 -7 5 -3
12 4 6 3 8 -3 5 -6 -4 -10 -16 -9 -28 1 -16 8 -23 24 -24 16 -1 19 2 12 9 -14
14 -13 29 3 20 6 -4 9 -4 5 1 -4 4 -3 14 4 22 9 11 8 13 -2 11 -7 -2 -15 3
-17 10 -3 8 2 10 14 6 10 -3 14 -2 8 3 -5 4 -12 11 -15 15 -3 4 -11 -1 -17
-12z"/>
<path d="M5139 2900 c-9 -6 -6 -8 14 -6 32 3 43 11 18 13 -9 1 -24 -2 -32 -7z"/>
<path d="M5436 2898 c3 -5 10 -6 15 -3 13 9 11 12 -6 12 -8 0 -12 -4 -9 -9z"/>
<path d="M5459 2873 c-13 -16 -12 -17 4 -4 16 13 21 21 13 21 -2 0 -10 -8 -17
-17z"/>
<path d="M5135 2860 c3 -5 8 -10 11 -10 2 0 4 5 4 10 0 6 -5 10 -11 10 -5 0
-7 -4 -4 -10z"/>
<path d="M5170 2860 c0 -5 5 -10 11 -10 5 0 7 5 4 10 -3 6 -8 10 -11 10 -2 0
-4 -4 -4 -10z"/>
<path d="M5427 2860 c6 -8 9 -23 8 -32 -2 -10 0 -20 4 -23 14 -8 6 44 -9 57
-12 11 -12 10 -3 -2z"/>
<path d="M2873 2803 c4 -3 3 -11 -2 -17 -12 -16 -21 -57 -10 -50 5 3 9 14 9
24 0 10 5 22 10 25 14 8 13 25 -2 25 -6 0 -8 -3 -5 -7z"/>
<path d="M2897 2783 c-4 -3 -7 -16 -6 -27 0 -19 1 -19 10 3 10 24 8 36 -4 24z"/>
<path d="M4352 2750 c-9 -14 -7 -22 10 -36 12 -11 18 -14 15 -7 -4 6 -1 16 8
20 13 8 12 11 -4 24 -16 15 -19 15 -29 -1z m22 -21 c-3 -5 -10 -7 -15 -3 -5 3
-7 10 -3 15 3 5 10 7 15 3 5 -3 7 -10 3 -15z"/>
<path d="M5090 2739 c0 -5 5 -7 10 -4 6 3 10 8 10 11 0 2 -4 4 -10 4 -5 0 -10
-5 -10 -11z"/>
<path d="M5420 2746 c0 -2 8 -10 18 -17 15 -13 16 -12 3 4 -13 16 -21 21 -21
13z"/>
<path d="M2870 2720 c0 -5 5 -10 10 -10 6 0 10 5 10 10 0 6 -4 10 -10 10 -5 0
-10 -4 -10 -10z"/>
<path d="M5386 2718 c3 -5 10 -6 15 -3 13 9 11 12 -6 12 -8 0 -12 -4 -9 -9z"/>
<path d="M2847 2699 c7 -7 15 -10 18 -7 3 3 -2 9 -12 12 -14 6 -15 5 -6 -5z"/>
<path d="M5350 2706 c0 -2 7 -7 16 -10 8 -3 12 -2 9 4 -6 10 -25 14 -25 6z"/>
<path d="M4365 2680 c-3 -6 1 -7 9 -4 18 7 21 14 7 14 -6 0 -13 -4 -16 -10z"/>
<path d="M5326 2558 c3 -5 10 -6 15 -3 13 9 11 12 -6 12 -8 0 -12 -4 -9 -9z"/>
<path d="M5280 2540 c-9 -6 -10 -10 -3 -10 6 0 15 5 18 10 8 12 4 12 -15 0z"/>
<path d="M4955 2499 c-3 -4 2 -6 10 -5 21 3 28 13 10 13 -9 0 -18 -4 -20 -8z"/>
<path d="M4000 2473 c-11 -13 -12 -17 -1 -21 11 -4 11 -6 0 -13 -7 -4 -10 -11
-6 -15 11 -11 18 0 22 35 5 36 5 36 -15 14z"/>
<path d="M4106 2478 c3 -5 10 -6 15 -3 13 9 11 12 -6 12 -8 0 -12 -4 -9 -9z"/>
<path d="M4896 2458 c3 -5 10 -6 15 -3 13 9 11 12 -6 12 -8 0 -12 -4 -9 -9z"/>
<path d="M4930 2460 c0 -5 5 -10 11 -10 5 0 7 5 4 10 -3 6 -8 10 -11 10 -2 0
-4 -4 -4 -10z"/>
<path d="M3966 2452 c-4 -4 -11 -7 -14 -7 -4 -1 -17 -6 -29 -13 -13 -7 -23 -9
-23 -5 0 4 -4 2 -8 -5 -5 -7 -19 -14 -31 -17 -13 -2 -29 -9 -35 -15 -7 -5 -17
-6 -21 -2 -5 4 -4 1 0 -7 6 -11 4 -13 -8 -8 -9 3 -19 2 -22 -4 -4 -5 -11 -7
-16 -4 -5 4 -9 1 -9 -5 0 -6 -6 -8 -12 -4 -7 4 -5 -1 4 -11 14 -15 20 -16 31
-6 8 6 25 14 37 16 17 3 21 1 16 -13 -5 -14 -3 -13 9 2 8 11 15 24 15 30 0 5
3 6 6 3 10 -9 46 12 39 24 -4 5 -2 9 4 9 22 0 19 -20 -6 -39 -16 -12 -21 -20
-13 -19 8 2 23 13 32 25 12 14 26 20 40 18 17 -4 19 -2 10 7 -19 19 -14 32 6
17 9 -7 14 -9 10 -5 -4 5 -3 15 3 22 11 13 -3 29 -15 16z m-28 -31 c-7 -11
-16 -17 -21 -14 -4 3 0 11 10 19 24 18 25 17 11 -5z m-51 -27 c-5 -5 -29 -11
-50 -13 -5 -1 -6 -5 -3 -9 3 -5 -2 -9 -11 -9 -13 0 -13 3 4 16 17 15 73 28 60
15z m-107 -39 c-7 -8 -17 -15 -23 -15 -6 0 -2 7 9 15 25 19 30 19 14 0z"/>
<path d="M5246 2438 c3 -5 10 -6 15 -3 13 9 11 12 -6 12 -8 0 -12 -4 -9 -9z"/>
<path d="M5180 2360 c-9 -6 -10 -10 -3 -10 6 0 15 5 18 10 8 12 4 12 -15 0z"/>
<path d="M4800 2340 c-9 -6 -10 -10 -3 -10 6 0 15 5 18 10 8 12 4 12 -15 0z"/>
<path d="M3786 2324 c-19 -19 -21 -31 -3 -15 8 6 16 9 19 6 2 -3 5 2 5 10 0
19 -2 19 -21 -1z"/>
<path d="M5195 2329 c-4 -6 -5 -12 -2 -15 2 -3 7 2 10 11 7 17 1 20 -8 4z"/>
<path d="M5136 2319 c4 -8 30 -6 38 2 3 3 -5 5 -19 5 -13 0 -22 -3 -19 -7z"/>
<path d="M3713 2305 c0 -8 4 -15 9 -15 4 0 8 4 8 9 0 6 -4 12 -8 15 -5 3 -9
-1 -9 -9z"/>
<path d="M3545 2301 c-6 -11 9 -23 19 -14 9 9 7 23 -3 23 -6 0 -12 -4 -16 -9z"/>
<path d="M4790 2306 c0 -2 7 -7 16 -10 8 -3 12 -2 9 4 -6 10 -25 14 -25 6z"/>
<path d="M3252 2235 c9 -20 14 -22 29 -12 17 11 17 12 1 21 -32 19 -42 16 -30
-9z m23 5 c3 -5 1 -10 -4 -10 -6 0 -11 5 -11 10 0 6 2 10 4 10 3 0 8 -4 11
-10z"/>
<path d="M3320 2245 c-7 -9 -8 -15 -2 -15 5 0 12 7 16 15 3 8 4 15 2 15 -2 0
-9 -7 -16 -15z"/>
<path d="M3090 2238 c0 -6 -7 -8 -15 -5 -8 4 -17 1 -21 -5 -4 -6 -3 -8 4 -4 5
3 13 0 16 -6 5 -11 7 -11 12 0 3 6 9 10 13 7 5 -2 16 1 25 8 14 11 13 12 -9
13 -14 1 -25 -3 -25 -8z"/>
<path d="M3146 2235 c-2 -7 2 -21 10 -32 14 -17 14 -17 7 1 -5 15 -3 17 8 11
8 -4 11 -5 7 0 -4 4 -4 13 2 19 6 8 3 12 -10 13 -10 1 -21 -4 -24 -12z"/>
<path d="M4696 2242 c-3 -5 1 -9 9 -9 8 0 12 4 9 9 -3 4 -7 8 -9 8 -2 0 -6 -4
-9 -8z"/>
<path d="M4735 2229 c-4 -6 -5 -12 -2 -15 2 -3 7 2 10 11 7 17 1 20 -8 4z"/>
<path d="M3031 2204 c0 -11 3 -14 6 -6 3 7 2 16 -1 19 -3 4 -6 -2 -5 -13z"/>
<path d="M3110 2210 c-9 -6 -10 -10 -3 -10 6 0 15 5 18 10 8 12 4 12 -15 0z"/>
<path d="M5013 2195 c0 -8 4 -12 9 -9 5 3 6 10 3 15 -9 13 -12 11 -12 -6z"/>
<path d="M4616 2182 c-3 -5 1 -9 9 -9 8 0 12 4 9 9 -3 4 -7 8 -9 8 -2 0 -6 -4
-9 -8z"/>
<path d="M4550 2121 c0 -6 4 -13 10 -16 6 -3 7 1 4 9 -7 18 -14 21 -14 7z"/>
<path d="M4984 2122 c4 -3 14 -7 22 -8 9 -1 13 0 10 4 -4 3 -14 7 -22 8 -9 1
-13 0 -10 -4z"/>
<path d="M4975 2080 c3 -5 8 -10 11 -10 2 0 4 5 4 10 0 6 -5 10 -11 10 -5 0
-7 -4 -4 -10z"/>
<path d="M4865 2060 c-3 -6 1 -7 9 -4 18 7 21 14 7 14 -6 0 -13 -4 -16 -10z"/>
<path d="M4750 1976 c0 -2 8 -10 18 -17 15 -13 16 -12 3 4 -13 16 -21 21 -21
13z"/>
<path d="M4790 1959 c0 -5 5 -7 10 -4 6 3 10 8 10 11 0 2 -4 4 -10 4 -5 0 -10
-5 -10 -11z"/>
<path d="M4709 1923 c-13 -16 -12 -17 4 -4 16 13 21 21 13 21 -2 0 -10 -8 -17
-17z"/>
<path d="M4795 1931 c-3 -5 -2 -12 3 -15 5 -3 9 1 9 9 0 17 -3 19 -12 6z"/>
<path d="M4635 1840 c-3 -5 -1 -10 4 -10 6 0 11 5 11 10 0 6 -2 10 -4 10 -3 0
-8 -4 -11 -10z"/>
<path d="M4576 1827 c3 -10 9 -15 12 -12 3 3 0 11 -7 18 -10 9 -11 8 -5 -6z"/>
</g>
</svg>
